<svg xmlns="http://www.w3.org/2000/svg" viewBox="0 0 240 240" fill="none">
  <defs>
    <radialGradient id="fade" cx="0.5" cy="0.5" r="0.5">
      <stop offset="0%" stop-color="#7a7a7a" stop-opacity="0.7"/>
      <stop offset="100%" stop-color="#7a7a7a" stop-opacity="0.2"/>
    </radialGradient>
  </defs>
  <g stroke="#7a7a7a" stroke-width="1.4" stroke-linecap="round" stroke-linejoin="round">
    <!-- Concentric rings -->
    <circle cx="120" cy="120" r="108" opacity="0.25"/>
    <circle cx="120" cy="120" r="90" opacity="0.25"/>
    <circle cx="120" cy="120" r="72" opacity="0.25"/>
    <circle cx="120" cy="120" r="54" opacity="0.25"/>

    <!-- 12 primary petals -->
    <g opacity="0.85">
      <g transform="rotate(0 120 120)">
        <path d="M120 24 C136 48, 168 60, 180 72 C168 84, 136 96, 120 120 C104 96, 72 84, 60 72 C72 60, 104 48, 120 24 Z"/>
      </g>
      <g transform="rotate(30 120 120)">
        <path d="M120 24 C136 48, 168 60, 180 72 C168 84, 136 96, 120 120 C104 96, 72 84, 60 72 C72 60, 104 48, 120 24 Z"/>
      </g>
      <g transform="rotate(60 120 120)">
        <path d="M120 24 C136 48, 168 60, 180 72 C168 84, 136 96, 120 120 C104 96, 72 84, 60 72 C72 60, 104 48, 120 24 Z"/>
      </g>
      <g transform="rotate(90 120 120)">
        <path d="M120 24 C136 48, 168 60, 180 72 C168 84, 136 96, 120 120 C104 96, 72 84, 60 72 C72 60, 104 48, 120 24 Z"/>
      </g>
      <g transform="rotate(120 120 120)">
        <path d="M120 24 C136 48, 168 60, 180 72 C168 84, 136 96, 120 120 C104 96, 72 84, 60 72 C72 60, 104 48, 120 24 Z"/>
      </g>
      <g transform="rotate(150 120 120)">
        <path d="M120 24 C136 48, 168 60, 180 72 C168 84, 136 96, 120 120 C104 96, 72 84, 60 72 C72 60, 104 48, 120 24 Z"/>
      </g>
      <g transform="rotate(180 120 120)">
        <path d="M120 24 C136 48, 168 60, 180 72 C168 84, 136 96, 120 120 C104 96, 72 84, 60 72 C72 60, 104 48, 120 24 Z"/>
      </g>
      <g transform="rotate(210 120 120)">
        <path d="M120 24 C136 48, 168 60, 180 72 C168 84, 136 96, 120 120 C104 96, 72 84, 60 72 C72 60, 104 48, 120 24 Z"/>
      </g>
      <g transform="rotate(240 120 120)">
        <path d="M120 24 C136 48, 168 60, 180 72 C168 84, 136 96, 120 120 C104 96, 72 84, 60 72 C72 60, 104 48, 120 24 Z"/>
      </g>
      <g transform="rotate(270 120 120)">
        <path d="M120 24 C136 48, 168 60, 180 72 C168 84, 136 96, 120 120 C104 96, 72 84, 60 72 C72 60, 104 48, 120 24 Z"/>
      </g>
      <g transform="rotate(300 120 120)">
        <path d="M120 24 C136 48, 168 60, 180 72 C168 84, 136 96, 120 120 C104 96, 72 84, 60 72 C72 60, 104 48, 120 24 Z"/>
      </g>
      <g transform="rotate(330 120 120)">
        <path d="M120 24 C136 48, 168 60, 180 72 C168 84, 136 96, 120 120 C104 96, 72 84, 60 72 C72 60, 104 48, 120 24 Z"/>
      </g>
    </g>

    <!-- Ornamental ring -->
    <g opacity="0.6">
      <g transform="rotate(15 120 120)">
        <path d="M120 52 L128 64 L144 68 L132 80 L130 96 L120 88 L110 96 L108 80 L96 68 L112 64 Z"/>
      </g>
      <g transform="rotate(45 120 120)">
        <path d="M120 52 L128 64 L144 68 L132 80 L130 96 L120 88 L110 96 L108 80 L96 68 L112 64 Z"/>
      </g>
      <g transform="rotate(75 120 120)">
        <path d="M120 52 L128 64 L144 68 L132 80 L130 96 L120 88 L110 96 L108 80 L96 68 L112 64 Z"/>
      </g>
      <g transform="rotate(105 120 120)">
        <path d="M120 52 L128 64 L144 68 L132 80 L130 96 L120 88 L110 96 L108 80 L96 68 L112 64 Z"/>
      </g>
      <g transform="rotate(135 120 120)">
        <path d="M120 52 L128 64 L144 68 L132 80 L130 96 L120 88 L110 96 L108 80 L96 68 L112 64 Z"/>
      </g>
      <g transform="rotate(165 120 120)">
        <path d="M120 52 L128 64 L144 68 L132 80 L130 96 L120 88 L110 96 L108 80 L96 68 L112 64 Z"/>
      </g>
    </g>

    <!-- Centerpiece -->
    <circle cx="120" cy="120" r="18" fill="url(#fade)"/>
    <circle cx="120" cy="120" r="10"/>
    <path d="M120 110 L124 120 L120 130 L116 120 Z"/>
  </g>
</svg>

